<svg width="18" height="18" viewBox="0 0 18 18" fill="none" xmlns="http://www.w3.org/2000/svg">
<g clip-path="url(#clip0_2778_17010)">
<path d="M5.46826 15.618L1.50001 16.5L2.38201 12.5317C1.80116 11.4453 1.49815 10.232 1.50001 9C1.50001 4.85775 4.85776 1.5 9.00001 1.5C13.1423 1.5 16.5 4.85775 16.5 9C16.5 13.1422 13.1423 16.5 9.00001 16.5C7.76802 16.5019 6.55472 16.1988 5.46826 15.618ZM5.68576 14.0332L6.17551 14.2957C7.04442 14.7601 8.0148 15.0021 9.00001 15C10.1867 15 11.3467 14.6481 12.3334 13.9888C13.3201 13.3295 14.0892 12.3925 14.5433 11.2961C14.9974 10.1997 15.1162 8.99334 14.8847 7.82946C14.6532 6.66557 14.0818 5.59647 13.2426 4.75736C12.4035 3.91824 11.3344 3.3468 10.1706 3.11529C9.00666 2.88378 7.80026 3.0026 6.70391 3.45672C5.60755 3.91085 4.67048 4.67988 4.01119 5.66658C3.3519 6.65327 3.00001 7.81331 3.00001 9C3.00001 10.0005 3.24376 10.9635 3.70501 11.8245L3.96676 12.3142L3.47551 14.5245L5.68576 14.0332ZM5.25001 9H6.75001C6.75001 9.59674 6.98706 10.169 7.40902 10.591C7.83098 11.0129 8.40327 11.25 9.00001 11.25C9.59675 11.25 10.169 11.0129 10.591 10.591C11.013 10.169 11.25 9.59674 11.25 9H12.75C12.75 9.99456 12.3549 10.9484 11.6517 11.6516C10.9484 12.3549 9.99457 12.75 9.00001 12.75C8.00545 12.75 7.05162 12.3549 6.34836 11.6516C5.6451 10.9484 5.25001 9.99456 5.25001 9Z" fill="white"/>
</g>
<defs>
<clipPath id="clip0_2778_17010">
<rect width="18" height="18" fill="white"/>
</clipPath>
</defs>
</svg>
