<svg width="44" height="40" viewBox="0 0 44 40" fill="none" xmlns="http://www.w3.org/2000/svg">
<rect width="44" height="40" rx="16" fill="#F3F7F6"/>
<g clip-path="url(#clip0_3275_21298)">
<path d="M22 18.5C23.9891 18.5 25.8968 19.2902 27.3033 20.6967C28.7098 22.1032 29.5 24.0109 29.5 26V35H26.5V26C26.5001 24.8522 26.0615 23.7477 25.2741 22.9126C24.4866 22.0775 23.4098 21.5748 22.264 21.5075L22 21.5C20.8522 21.4999 19.7477 21.9385 18.9126 22.7259C18.0775 23.5134 17.5748 24.5902 17.5075 25.736L17.5 26V35H14.5V26C14.5 24.0109 15.2902 22.1032 16.6967 20.6967C18.1032 19.2902 20.0109 18.5 22 18.5ZM12.25 23C12.6685 23 13.075 23.0495 13.465 23.141C13.2085 23.9045 13.0567 24.6992 13.0135 25.5035L13 26V26.129C12.8276 26.0673 12.6482 26.027 12.466 26.009L12.25 26C11.6907 26 11.1514 26.2084 10.7374 26.5844C10.3233 26.9605 10.0642 27.4773 10.0105 28.034L10 28.25V35H7V28.25C7 26.8576 7.55312 25.5223 8.53769 24.5377C9.52226 23.5531 10.8576 23 12.25 23V23ZM31.75 23C33.1424 23 34.4777 23.5531 35.4623 24.5377C36.4469 25.5223 37 26.8576 37 28.25V35H34V28.25C34 27.6907 33.7916 27.1514 33.4156 26.7374C33.0395 26.3233 32.5227 26.0642 31.966 26.0105L31.75 26C31.4875 26 31.2355 26.045 31 26.1275V26C31 25.001 30.838 24.041 30.5365 23.144C30.925 23.0495 31.3315 23 31.75 23ZM12.25 14C13.2446 14 14.1984 14.3951 14.9017 15.0983C15.6049 15.8016 16 16.7554 16 17.75C16 18.7446 15.6049 19.6984 14.9017 20.4017C14.1984 21.1049 13.2446 21.5 12.25 21.5C11.2554 21.5 10.3016 21.1049 9.59835 20.4017C8.89509 19.6984 8.5 18.7446 8.5 17.75C8.5 16.7554 8.89509 15.8016 9.59835 15.0983C10.3016 14.3951 11.2554 14 12.25 14V14ZM31.75 14C32.7446 14 33.6984 14.3951 34.4017 15.0983C35.1049 15.8016 35.5 16.7554 35.5 17.75C35.5 18.7446 35.1049 19.6984 34.4017 20.4017C33.6984 21.1049 32.7446 21.5 31.75 21.5C30.7554 21.5 29.8016 21.1049 29.0983 20.4017C28.3951 19.6984 28 18.7446 28 17.75C28 16.7554 28.3951 15.8016 29.0983 15.0983C29.8016 14.3951 30.7554 14 31.75 14V14ZM12.25 17C12.0511 17 11.8603 17.079 11.7197 17.2197C11.579 17.3603 11.5 17.5511 11.5 17.75C11.5 17.9489 11.579 18.1397 11.7197 18.2803C11.8603 18.421 12.0511 18.5 12.25 18.5C12.4489 18.5 12.6397 18.421 12.7803 18.2803C12.921 18.1397 13 17.9489 13 17.75C13 17.5511 12.921 17.3603 12.7803 17.2197C12.6397 17.079 12.4489 17 12.25 17ZM31.75 17C31.5511 17 31.3603 17.079 31.2197 17.2197C31.079 17.3603 31 17.5511 31 17.75C31 17.9489 31.079 18.1397 31.2197 18.2803C31.3603 18.421 31.5511 18.5 31.75 18.5C31.9489 18.5 32.1397 18.421 32.2803 18.2803C32.421 18.1397 32.5 17.9489 32.5 17.75C32.5 17.5511 32.421 17.3603 32.2803 17.2197C32.1397 17.079 31.9489 17 31.75 17ZM22 5C23.5913 5 25.1174 5.63214 26.2426 6.75736C27.3679 7.88258 28 9.4087 28 11C28 12.5913 27.3679 14.1174 26.2426 15.2426C25.1174 16.3679 23.5913 17 22 17C20.4087 17 18.8826 16.3679 17.7574 15.2426C16.6321 14.1174 16 12.5913 16 11C16 9.4087 16.6321 7.88258 17.7574 6.75736C18.8826 5.63214 20.4087 5 22 5V5ZM22 8C21.2044 8 20.4413 8.31607 19.8787 8.87868C19.3161 9.44129 19 10.2044 19 11C19 11.7956 19.3161 12.5587 19.8787 13.1213C20.4413 13.6839 21.2044 14 22 14C22.7956 14 23.5587 13.6839 24.1213 13.1213C24.6839 12.5587 25 11.7956 25 11C25 10.2044 24.6839 9.44129 24.1213 8.87868C23.5587 8.31607 22.7956 8 22 8V8Z" fill="#249A84"/>
</g>
<defs>
<clipPath id="clip0_3275_21298">
<rect width="36" height="36" fill="white" transform="translate(4 2)"/>
</clipPath>
</defs>
</svg>
