<svg width="44" height="40" viewBox="0 0 44 40" fill="none" xmlns="http://www.w3.org/2000/svg">
<rect width="44" height="40" rx="12" fill="#F3F7F6"/>
<g clip-path="url(#clip0_3275_21289)">
<path d="M29.5 5H34C34.3978 5 34.7794 5.15804 35.0607 5.43934C35.342 5.72064 35.5 6.10218 35.5 6.5V33.5C35.5 33.8978 35.342 34.2794 35.0607 34.5607C34.7794 34.842 34.3978 35 34 35H10C9.60218 35 9.22064 34.842 8.93934 34.5607C8.65804 34.2794 8.5 33.8978 8.5 33.5V6.5C8.5 6.10218 8.65804 5.72064 8.93934 5.43934C9.22064 5.15804 9.60218 5 10 5H14.5V2H17.5V5H26.5V2H29.5V5ZM29.5 8V11H26.5V8H17.5V11H14.5V8H11.5V32H32.5V8H29.5ZM14.5 14H29.5V17H14.5V14ZM14.5 20H29.5V23H14.5V20Z" fill="#249A84"/>
</g>
<defs>
<clipPath id="clip0_3275_21289">
<rect width="36" height="36" fill="white" transform="translate(4 2)"/>
</clipPath>
</defs>
</svg>
